<?xml version="1.0" standalone="no"?>
<!DOCTYPE svg PUBLIC "-//W3C//DTD SVG 20010904//EN"
 "http://www.w3.org/TR/2001/REC-SVG-20010904/DTD/svg10.dtd">
<svg version="1.0" xmlns="http://www.w3.org/2000/svg"
 viewBox="189 397 1089 1089"
 preserveAspectRatio="xMidYMid meet">
<metadata>
Created by potrace 1.16, written by Peter Selinger 2001-2019
</metadata>
<g transform="translate(0.000000,1076.000000) scale(0.100000,-0.100000)"
fill="#FF4655" stroke="none">
<path d="M7630 4786 c360 -63 539 -120 848 -273 473 -234 882 -618 1136 -1066
36 -63 67 -121 68 -128 2 -8 6 -16 10 -19 7 -5 78 -164 78 -174 0 -3 -11 -1
-24 5 -15 7 -34 36 -57 87 -56 129 -204 378 -288 482 -412 515 -886 831 -1491
994 -440 118 -965 113 -1405 -13 -95 -27 -114 -27 -115 1 0 3 24 12 53 18 28
7 59 16 68 21 9 5 41 12 70 18 30 5 99 18 154 30 55 12 147 25 205 30 152 13
587 5 690 -13z m-2010 -496 c0 -12 -36 -48 -102 -102 -191 -153 -369 -338
-516 -534 -79 -105 -219 -340 -266 -446 -27 -60 -45 -88 -67 -100 -16 -9 -29
-15 -29 -13 0 3 24 56 53 118 157 332 398 655 665 894 81 72 248 203 259 203
1 0 3 -9 3 -20z m1345 -309 c-9 -8 -128 -83 -340 -214 -44 -27 -118 -72 -165
-100 -161 -95 -295 -180 -340 -215 -65 -51 -81 -60 -35 -19 22 20 37 38 34 41
-2 3 -141 -62 -307 -144 -167 -83 -311 -150 -321 -150 -10 0 -32 3 -50 6 -28
6 -8 18 212 129 133 67 350 177 482 245 132 67 364 186 515 263 151 77 284
146 295 153 22 16 34 19 20 5z m910 -176 c94 -48 202 -105 240 -125 262 -139
643 -332 828 -418 135 -64 145 -70 116 -76 -70 -14 -73 -13 -464 179 -237 116
-505 266 -705 392 -275 175 -348 225 -240 166 30 -17 132 -70 225 -118z m-707
-670 c74 -93 141 -177 149 -186 13 -15 6 -17 -80 -18 l-93 -2 -61 68 c-33 37
-83 96 -111 130 l-52 62 0 127 0 127 57 -69 c31 -38 117 -145 191 -239z m367
29 l-26 -34 -105 0 -105 0 52 63 c29 34 86 102 128 151 l76 89 3 -118 c3 -113
2 -119 -23 -151z m-2138 -60 c-48 -17 -91 -37 -254 -115 -143 -68 -427 -198
-468 -214 l-20 -7 20 -8 c11 -5 56 -16 100 -25 44 -10 95 -22 114 -27 19 -6
91 -21 160 -34 100 -19 113 -23 61 -19 -127 8 -654 85 -666 98 -4 3 109 55
406 185 172 76 213 94 336 151 l101 47 71 -10 c71 -10 71 -10 39 -22z m3917
-19 c53 -25 99 -45 101 -45 4 0 332 -150 503 -231 132 -62 134 -58 -56 -89
-70 -12 -185 -32 -257 -45 -71 -13 -152 -26 -180 -30 -54 -7 -313 -51 -355
-61 -14 -3 -22 -3 -18 1 4 4 35 13 70 20 97 20 243 51 348 74 52 12 149 33
215 47 66 15 124 30 129 35 5 4 -7 14 -25 22 -19 8 -81 37 -139 65 -58 27
-134 63 -170 80 -36 16 -123 57 -193 91 -117 56 -158 67 -141 39 4 -6 -1 -8
-12 -4 -48 15 -131 26 -163 21 -20 -3 -30 -2 -22 1 27 13 206 52 238 53 18 1
73 -18 127 -44z m-3219 -515 c188 -19 350 -39 420 -54 87 -18 72 -18 -140 -6
-282 16 -414 31 -436 50 -28 25 -24 31 19 25 20 -3 82 -10 137 -15z m-1595
-79 c0 -3 -7 -51 -15 -106 -20 -134 -29 -473 -17 -610 39 -418 174 -823 392
-1175 64 -104 69 -120 35 -120 -35 0 -245 408 -325 630 -98 275 -140 499 -147
795 -5 193 4 364 29 526 10 67 13 76 30 71 10 -2 18 -7 18 -11z m5460 4 c0 -2
8 -53 17 -112 22 -134 25 -550 5 -688 -32 -226 -87 -448 -158 -638 -54 -147
-174 -396 -241 -501 -43 -66 -51 -74 -65 -64 -15 12 -12 20 29 88 109 178 210
393 276 590 97 288 137 536 137 850 0 171 -20 436 -35 460 -3 5 1 11 7 13 17
7 28 8 28 2z m-3322 -440 c109 -55 272 -165 272 -184 0 -5 -8 -11 -17 -13 -22
-5 -167 17 -184 28 -11 6 -21 8 -87 12 -13 1 -34 14 -47 28 -24 26 -155 219
-155 228 0 7 89 -34 218 -99z m1408 68 c-8 -16 -41 -66 -73 -112 -67 -97 -84
-107 -253 -141 -101 -20 -101 -20 -126 -1 l-25 20 78 55 c82 58 214 127 273
143 19 6 53 22 74 37 53 36 71 35 52 -1z m343 -667 c25 -13 96 -45 156 -71 61
-26 113 -50 117 -54 3 -3 31 -136 62 -296 31 -159 58 -300 61 -311 3 -16 -13
-44 -57 -100 -81 -105 -86 -109 -48 -42 l31 57 -30 123 c-16 68 -44 189 -62
270 l-33 147 -33 -29 c-18 -17 -79 -80 -134 -142 -191 -213 -162 -168 70 107
130 155 131 161 26 242 -41 32 -101 73 -132 90 -67 38 -63 44 6 9z m-2339 -10
c0 -2 -17 -15 -37 -28 -21 -12 -62 -42 -90 -65 -29 -24 -53 -39 -53 -33 0 7
-6 8 -19 1 -15 -8 -24 -41 -45 -158 -15 -81 -38 -204 -51 -273 -13 -69 -28
-150 -32 -180 l-9 -55 -16 25 c-15 23 -15 32 2 120 57 308 83 440 92 484 l10
48 122 58 c138 66 126 61 126 56z m2109 -737 c-94 -112 -116 -151 -69 -121 24
15 -231 -303 -328 -410 -39 -42 -88 -103 -110 -135 -41 -59 -92 -114 -92 -97
0 5 29 47 65 94 36 47 93 123 127 170 134 183 489 620 504 620 3 0 -41 -54
-97 -121z m881 -211 c69 -36 184 -96 255 -133 72 -37 168 -88 215 -113 47 -26
123 -65 170 -88 l85 -41 -111 -56 c-93 -47 -111 -53 -107 -37 3 11 1 20 -4 20
-5 0 -9 12 -8 27 0 24 -10 32 -85 71 -218 112 -320 169 -373 209 -33 23 -70
43 -83 43 -14 0 -58 18 -99 41 -66 36 -73 43 -62 58 50 68 61 80 71 72 6 -4
67 -37 136 -73z m-3445 46 c16 -25 16 -27 -4 -48 -29 -31 -26 -39 9 -21 34 18
40 18 40 5 0 -5 -5 -10 -11 -10 -6 0 -38 -14 -71 -30 -55 -28 -58 -29 -44 -8
9 12 16 28 16 35 0 6 -73 -25 -162 -71 -90 -45 -201 -99 -248 -121 -47 -21
-139 -65 -205 -97 -114 -55 -158 -68 -169 -50 -2 4 37 29 87 55 51 26 146 77
212 113 66 36 194 104 285 151 91 48 181 95 200 105 44 23 44 23 65 -8z m-920
-490 c37 -24 33 -47 -5 -39 -35 8 -66 -9 -119 -64 -21 -23 -36 -31 -38 -23 -9
23 -85 14 -140 -18 -39 -22 -65 -49 -107 -111 -31 -44 -56 -84 -56 -88 0 -3
-20 -29 -45 -56 l-45 -50 49 80 c60 95 150 215 171 227 51 29 296 157 303 157
4 1 19 -6 32 -15z m5322 -64 l158 -80 91 -117 c50 -65 124 -167 165 -226 41
-60 81 -118 89 -130 17 -25 -138 136 -195 203 -90 105 -213 223 -250 240 -22
10 -83 38 -135 62 -52 25 -110 51 -127 59 -18 7 -33 16 -33 19 0 4 69 48 77
50 2 0 74 -36 160 -80z m-6343 -862 c-94 -50 -144 -115 -144 -189 0 -42 -6
-52 -77 -135 -78 -90 -217 -248 -419 -474 -61 -69 -167 -188 -235 -265 -108
-121 -129 -140 -164 -148 -38 -8 -191 -5 -199 4 -2 2 -11 83 -20 180 -12 128
-16 286 -16 582 l0 407 95 0 95 0 0 -412 c0 -433 4 -518 25 -518 7 0 57 50
111 112 55 61 147 164 205 229 58 64 173 195 255 290 82 96 184 214 227 262
l79 88 101 -2 c73 -1 95 -4 81 -11z m2401 -34 c136 -44 252 -132 332 -252 51
-77 81 -156 100 -262 16 -87 16 -92 -6 -182 -13 -51 -38 -125 -57 -165 -105
-220 -361 -355 -612 -324 -159 20 -268 75 -369 185 -166 182 -208 428 -110
658 39 93 140 210 233 271 129 86 346 117 489 71z m-1745 -563 c0 -550 0 -559
-21 -585 -18 -23 -28 -26 -78 -26 l-58 0 -64 72 c-35 39 -85 98 -111 131 -86
107 -203 237 -214 237 -11 0 -119 -115 -295 -315 -59 -66 -112 -125 -120 -132
-16 -12 -280 -23 -273 -11 3 4 26 8 50 8 37 0 51 6 76 30 26 27 30 36 24 68
-5 35 -1 43 47 98 28 34 79 92 111 130 32 38 89 103 126 144 77 85 128 143
324 366 77 88 178 201 224 252 l84 92 84 0 84 0 0 -559z m462 117 c1 -244 1
-460 0 -480 -1 -20 2 -39 7 -42 5 -3 86 -7 181 -7 94 -1 199 -5 232 -8 l61 -6
-40 -50 c-22 -28 -52 -69 -66 -92 l-27 -42 -270 -3 -270 -3 0 588 0 587 95 0
95 0 2 -442z m2813 433 c3 -5 -25 -50 -62 -100 l-68 -90 -252 -1 -252 0 -40
-42 c-38 -40 -41 -47 -41 -103 0 -56 2 -61 42 -102 l42 -43 222 0 221 0 97
-105 96 -105 0 -134 0 -133 -101 -106 -101 -107 -364 1 c-200 0 -364 2 -364 5
0 2 32 47 71 99 l71 95 107 2 c58 1 170 2 248 3 l142 0 46 45 c43 42 45 47 45
99 0 51 -3 58 -42 98 l-42 43 -220 0 -221 0 -97 97 -98 98 0 143 0 144 97 104
97 104 357 0 c209 0 360 -4 364 -9z m1024 0 c10 -6 -3 -30 -55 -100 l-69 -91
-257 0 -258 0 -1 -50 c-1 -27 -2 -92 -3 -142 l-1 -93 253 -3 c138 -1 252 -6
252 -11 0 -5 -30 -50 -67 -100 l-68 -91 -181 0 -181 0 -7 -128 c-4 -71 -4
-136 0 -145 6 -15 38 -17 335 -17 181 0 329 -2 329 -5 0 -2 -24 -46 -54 -97
l-53 -93 -376 -3 -376 -2 -3 342 c-2 189 -2 454 0 591 l3 247 412 0 c227 0
418 -4 426 -9z m474 -86 c32 -52 127 -202 210 -334 84 -133 173 -274 199 -316
26 -41 52 -75 58 -75 7 0 10 131 10 410 l0 410 98 0 99 0 1 -590 2 -590 -124
0 -124 0 -103 168 c-327 532 -404 652 -419 652 -7 0 -10 -141 -10 -410 l0
-410 -99 0 -100 0 -3 98 c-2 53 -2 319 0 590 l3 492 122 0 122 0 58 -95z
m1747 90 c0 -2 -32 -47 -71 -100 l-72 -95 -246 0 -245 0 -43 -42 c-41 -40 -43
-45 -43 -101 0 -53 4 -63 36 -103 l36 -44 227 0 227 0 97 -107 97 -108 0 -131
0 -131 -102 -107 -103 -107 -363 3 -362 3 65 92 c36 50 69 95 75 98 5 3 122 6
259 6 l250 -1 40 48 c36 41 41 53 41 97 0 44 -5 56 -41 98 l-41 47 -223 0
-223 0 -96 103 -96 102 0 135 0 135 101 108 101 107 359 0 c197 0 359 -2 359
-5z m995 -7 c4 -3 -24 -46 -62 -95 l-69 -88 -255 -5 -254 -5 0 -140 0 -140
255 -5 c140 -3 249 -9 243 -13 -7 -4 -40 -48 -74 -97 l-61 -90 -181 -2 -182
-3 0 -140 0 -140 326 -3 326 -2 -51 -98 -51 -97 -377 -3 -378 -2 0 584 c0 548
1 585 18 589 26 8 819 3 827 -5z m455 -5 c0 -5 -55 -69 -123 -144 -67 -74
-134 -151 -149 -170 l-27 -34 -1 143 c0 80 5 152 10 162 21 38 59 49 178 50
61 0 112 -3 112 -7z m-101 -770 l1 -393 -100 0 -100 0 0 315 0 315 71 77 c39
43 81 91 93 106 l21 29 6 -29 c4 -15 7 -205 8 -420z"/>
</g>
</svg>
