<?xml version="1.0" standalone="no"?>
<!DOCTYPE svg PUBLIC "-//W3C//DTD SVG 20010904//EN"
 "http://www.w3.org/TR/2001/REC-SVG-20010904/DTD/svg10.dtd">
<svg version="1.0" xmlns="http://www.w3.org/2000/svg"
 width="680" height="680" viewBox="390 520 680 680"
 preserveAspectRatio="xMidYMid meet">
<metadata>
Created by potrace 1.16, written by Peter Selinger 2001-2019
</metadata>
<g transform="translate(0.000000,1076.000000) scale(0.100000,-0.100000)"
fill="#FF4655" stroke="#FF4655" stroke-width="250">
<path d="M7630 4786 C7990 4723 8169 4666 8478 4513 C8951 4279 9360 3895 9614 3447 C9650 3384 9681 3326 9682 3319 C9684 3311 9688 3303 9692 3300 C9699 3295 9770 3136 9770 3126 C9770 3123 9759 3125 9746 3131 C9731 3138 9712 3167 9689 3218 C9633 3347 9485 3596 9401 3700 C8989 4215 8515 4531 7910 4694 C7470 4812 6945 4807 6505 4681 C6410 4654 6391 4654 6390 4682 C6390 4685 6414 4694 6443 4700 C6471 4707 6502 4716 6511 4721 C6520 4726 6552 4733 6581 4739 C6611 4744 6680 4757 6735 4769 C6790 4781 6882 4794 6940 4799 C7092 4812 7527 4804 7630 4786 Z M5620 4290 C5620 4278 5584 4242 5518 4188 C5327 4035 5149 3850 5002 3654 C4923 3549 4783 3314 4736 3208 C4709 3148 4691 3120 4669 3108 C4653 3099 4640 3093 4640 3095 C4640 3098 4664 3151 4693 3213 C4850 3545 5091 3868 5358 4107 C5439 4179 5606 4310 5617 4310 C5618 4310 5620 4301 5620 4290 Z M6965 3981 C6956 3973 6837 3898 6625 3767 C6581 3740 6507 3695 6460 3667 C6299 3572 6165 3487 6120 3452 C6055 3401 6039 3392 6085 3433 C6107 3453 6122 3471 6119 3474 C6117 3477 5978 3412 5812 3330 C5645 3247 5501 3180 5491 3180 C5481 3180 5459 3183 5441 3186 C5413 3192 5433 3204 5653 3315 C5786 3382 6003 3492 6135 3560 C6267 3627 6499 3746 6650 3823 C6801 3900 6934 3969 6945 3976 C6967 3992 6979 3995 6965 3981 Z M7875 3805 C7969 3757 8077 3700 8115 3680 C8377 3541 8758 3348 8943 3262 C9078 3198 9088 3192 9059 3186 C8989 3172 8986 3173 8595 3365 C8358 3481 8090 3631 7890 3757 C7615 3932 7542 3982 7650 3923 C7680 3906 7782 3853 7875 3805 Z M7168 3135 C7242 3042 7309 2958 7317 2949 C7330 2934 7323 2932 7237 2931 L7144 2929 L7083 2997 C7050 3034 7000 3093 6972 3127 L6920 3189 L6920 3316 L6920 3443 L6977 3374 C7008 3336 7094 3229 7168 3135 Z M7535 3164 L7509 3130 L7404 3130 L7299 3130 L7351 3193 C7380 3227 7437 3295 7479 3344 L7555 3433 L7558 3315 C7561 3202 7560 3196 7535 3164 Z M5397 3104 C5349 3087 5306 3067 5143 2989 C5000 2921 4716 2791 4675 2775 L4655 2768 L4675 2760 C4686 2755 4731 2744 4775 2735 C4819 2725 4870 2713 4889 2708 C4908 2702 4980 2687 5049 2674 C5149 2655 5162 2651 5110 2655 C4983 2663 4456 2740 4444 2753 C4440 2756 4553 2808 4850 2938 C5022 3014 5063 3032 5186 3089 L5287 3136 L5358 3126 C5429 3116 5429 3116 5397 3104 Z M9314 3085 C9367 3060 9413 3040 9415 3040 C9419 3040 9747 2890 9918 2809 C10050 2747 10052 2751 9862 2720 C9792 2708 9677 2688 9605 2675 C9534 2662 9453 2649 9425 2645 C9371 2638 9112 2594 9070 2584 C9056 2581 9048 2581 9052 2585 C9056 2589 9087 2598 9122 2605 C9219 2625 9365 2656 9470 2679 C9522 2691 9619 2712 9685 2726 C9751 2741 9809 2756 9814 2761 C9819 2765 9807 2775 9789 2783 C9770 2791 9708 2820 9650 2848 C9592 2875 9516 2911 9480 2928 C9444 2944 9357 2985 9287 3019 C9170 3075 9129 3086 9146 3058 C9150 3052 9145 3050 9134 3054 C9086 3069 9003 3080 8971 3075 C8951 3072 8941 3073 8949 3076 C8976 3089 9155 3128 9187 3129 C9205 3130 9260 3111 9314 3085 Z M6095 2570 C6283 2551 6445 2531 6515 2516 C6602 2498 6587 2498 6375 2510 C6093 2526 5961 2541 5939 2560 C5911 2585 5915 2591 5958 2585 C5978 2582 6040 2575 6095 2570 Z M4500 2491 C4500 2488 4493 2440 4485 2385 C4465 2251 4456 1912 4468 1775 C4507 1357 4642 952 4860 600 C4924 496 4929 480 4895 480 C4860 480 4650 888 4570 1110 C4472 1385 4430 1609 4423 1905 C4418 2098 4427 2269 4452 2431 C4462 2498 4465 2507 4482 2502 C4492 2500 4500 2495 4500 2491 Z M9960 2495 C9960 2493 9968 2442 9977 2383 C9999 2249 10002 1833 9982 1695 C9950 1469 9895 1247 9824 1057 C9770 910 9650 661 9583 556 C9540 490 9532 482 9518 492 C9503 504 9506 512 9547 580 C9656 758 9757 973 9823 1170 C9920 1458 9960 1706 9960 2020 C9960 2191 9940 2456 9925 2480 C9922 2485 9926 2491 9932 2493 C9949 2500 9960 2501 9960 2495 Z M6638 2055 C6747 2000 6910 1890 6910 1871 C6910 1866 6902 1860 6893 1858 C6871 1853 6726 1875 6709 1886 C6698 1892 6688 1894 6622 1898 C6609 1899 6588 1912 6575 1926 C6551 1952 6420 2145 6420 2154 C6420 2161 6509 2120 6638 2055 Z M8046 2123 C8038 2107 8005 2057 7973 2011 C7906 1914 7889 1904 7720 1870 C7619 1850 7619 1850 7594 1869 L7569 1889 L7647 1944 C7729 2002 7861 2071 7920 2087 C7939 2093 7973 2109 7994 2124 C8047 2160 8065 2159 8046 2123 Z M8389 1456 C8414 1443 8485 1411 8545 1385 C8606 1359 8658 1335 8662 1331 C8665 1328 8693 1195 8724 1035 C8755 876 8782 735 8785 724 C8788 708 8772 680 8728 624 C8647 519 8642 515 8680 582 L8711 639 L8681 762 C8665 830 8637 951 8619 1032 L8586 1179 L8553 1150 C8535 1133 8474 1070 8419 1008 C8228 795 8257 840 8489 1115 C8619 1270 8620 1276 8515 1357 C8474 1389 8414 1430 8383 1447 C8316 1485 8320 1491 8389 1456 Z M6050 1446 C6050 1444 6033 1431 6013 1418 C5992 1406 5951 1376 5923 1353 C5894 1329 5870 1314 5870 1320 C5870 1327 5864 1328 5851 1321 C5836 1313 5827 1280 5806 1163 C5791 1082 5768 959 5755 890 C5742 821 5727 740 5723 710 L5714 655 L5698 680 C5683 703 5683 712 5700 800 C5757 1108 5783 1240 5792 1284 L5802 1332 L5924 1390 C6062 1456 6050 1451 6050 1446 Z M8159 709 C8065 597 8043 558 8090 588 C8114 603 7859 285 7762 178 C7723 136 7674 75 7652 43 C7611 -16 7560 -71 7560 -54 C7560 -49 7589 -7 7625 40 C7661 87 7718 163 7752 210 C7886 393 8241 830 8256 830 C8259 830 8215 776 8159 709 Z M9040 498 C9109 462 9224 402 9295 365 C9367 328 9463 277 9510 252 C9557 226 9633 187 9680 164 L9765 123 L9654 67 C9561 20 9543 14 9547 30 C9550 41 9548 50 9543 50 C9538 50 9534 62 9535 77 C9535 101 9525 109 9450 148 C9232 260 9130 317 9077 357 C9044 380 9007 400 8994 400 C8980 400 8936 418 8895 441 C8829 477 8822 484 8833 499 C8883 567 8894 579 8904 571 C8910 567 8971 534 9040 498 Z M5595 544 C5611 519 5611 517 5591 496 C5562 465 5565 457 5600 475 C5634 493 5640 493 5640 480 C5640 475 5635 470 5629 470 C5623 470 5591 456 5558 440 C5503 412 5500 411 5514 432 C5523 444 5530 460 5530 467 C5530 473 5457 442 5368 396 C5278 351 5167 297 5120 275 C5073 254 4981 210 4915 178 C4801 123 4757 110 4746 128 C4744 132 4783 157 4833 183 C4884 209 4979 260 5045 296 C5111 332 5239 400 5330 447 C5421 495 5511 542 5530 552 C5574 575 5574 575 5595 544 Z M4675 54 C4712 30 4708 7 4670 15 C4635 23 4604 6 4551 -49 C4530 -72 4515 -80 4513 -72 C4504 -49 4428 -58 4373 -90 C4334 -112 4308 -139 4266 -201 C4235 -245 4210 -285 4210 -289 C4210 -292 4190 -318 4165 -345 L4120 -395 L4169 -315 C4229 -220 4319 -100 4340 -88 C4391 -59 4636 69 4643 69 C4647 70 4662 63 4675 54 Z M9997 -10 L10155 -90 L10246 -207 C10296 -272 10370 -374 10411 -433 C10452 -493 10492 -551 10500 -563 C10517 -588 10362 -427 10305 -360 C10215 -255 10092 -137 10055 -120 C10033 -110 9972 -82 9920 -58 C9868 -33 9810 -7 9793 1 C9775 8 9760 17 9760 20 C9760 24 9829 68 9837 70 C9839 70 9911 34 9997 -10 Z"/>
</g>
</svg>
